<svg version="1.2" xmlns="http://www.w3.org/2000/svg" viewBox="0 0 890 602" width="890" height="602"><style></style><path  d="m202.9 34.7c-0.5 1.3-0.1 5.6 0.8 9.6 1.4 6.3 1 100-0.5 111-0.5 4.3 46 5.9 71.6 2.4 67.9-9 77.6-100.2 13-120.6-13-4.2-83.4-6-84.9-2.4zm76 29.2c21.3 7.2 26.4 42.1 8.3 57.7-7.7 6.8-23.7 11.2-37.2 10.5l-11.7-0.6-0.5-36.3-0.6-36.4 17.4 1.4c9.5 0.8 20.5 2.4 24.3 3.7z"/><path  d="m390 34.1c-2.6 3.2-9.5 18.9-13.6 31.2-1.6 4.8-5.7 14.6-8.9 21.7-12.6 27.2-17.2 37.2-25.1 53.9-4.5 9.5-8.2 17.7-8.2 18.2 0 0.6 8.2 0.8 18.1 0.6 20.1-0.5 19.3 0 23.9-16.3l2.7-9.9h27.3c29.7 0 29.8 0.1 32 11.9 2.5 14.4 3 14.8 21.6 14.8 18.2 0 19.9-0.9 15.9-8-1.6-2.7-3.8-7.1-5-9.8-2.6-5.9-8.7-19.6-13.9-31.2-2.2-4.7-3.9-9.7-3.9-11.4 0-1.6-0.9-2.9-2-2.9-1.1 0-1.9-1.2-1.9-2.7q0-4.3-13.4-32.9c-2.9-6-6.6-14.9-8.5-19.8l-3.5-8.9-15.7-0.6c-11.2-0.4-16.3 0.2-17.9 2.1zm23.6 48.7c1.7 6.8 4.2 13.4 5.5 14.7 5.3 5.3 2.7 13.8-4 12.5-3.4-0.6-10.5-1.2-15.8-1.2-10.4 0-13.3-4.5-6.7-9.9 1.7-1.4 3-4.1 3-6 0-2 0.8-4.2 1.9-4.9 1.1-0.7 2-3.4 2-6.1 0-16.8 9.6-16.1 14.1 0.9z"/><path  d="m466.8 47.3v14.6l20.9-1.4 21.1-1.4-0.8 50.5-0.8 50.3 16.8-0.3 16.9-0.4-0.2-7.9c-0.1-4.4-0.4-26.6-0.8-49.4l-0.7-41.6 20.2 0.7 20.3 0.8-0.6-14.2-0.6-14.4-55.9-0.3-55.8-0.3z"/><path  d="m624.5 36.1c-1.6 2.5-4 7.9-5.5 12.2-2.1 6.7-6.7 17.5-18.6 43.7-1.5 3.2-3.6 8.1-4.7 10.8-1.2 2.7-4.8 11-8.1 18.3-3.4 7.4-6.1 13.8-6.1 14.4 0 0.5-2.8 5.3-6.1 10.8-7.9 12.7-6.9 13.8 12.6 13.5 18.8-0.3 20.4-1.2 22.1-11.4 2.4-13.9 3.2-14.3 32.3-14.6 29-0.3 26.5-1.6 31.9 15.5l3.2 9.9 18.3 0.4c20.7 0.4 20.8 0.3 13.3-14.5-10.2-20.3-18.9-40-18.9-42.8 0-1.7-0.6-3.4-1.5-3.7-1.7-0.7-13-26.3-20.4-46.2-7.6-20.6-7.9-20.8-25.5-20.8-13.8 0-15.6 0.5-18.3 4.5zm22 37.6c1 2.4 3 8.3 4.4 13.1 1.4 4.8 3.7 9.9 5.2 11.4 1.5 1.5 2.5 4.6 2.1 7-0.7 5.5-30.1 7.5-32 2.3-1.3-3.2 0.5-8.6 2.7-8.6 1.9 0 7.9-18 7.9-23.4 0-3.6 2.3-5.7 6.5-6.1 0.9-0.1 2.3 1.8 3.2 4.3z"/><path  d="m164.2 226.2c0 9.3 1.7 11.5 6.5 8.2 6.3-4.5 12.4-3.6 19.3 2.4 8.2 7.4 5.5 21.8-5.3 28.9-3.5 2.3-7 6.1-7.6 8.4-0.5 2.2-3.3 5.1-6 6.3-2.7 1.3-5 3.2-5 4.4 0 3.3 12.3 2.3 16.4-1.5 3.6-3.2 3.9-3.2 6.3 0 1.4 1.9 3.4 3.5 4.5 3.5 6.8 0 3.2 15.2-3.8 16.6-2.5 0.5-6.8 1.4-9.5 2-14 2.8-16.1 17.2-3 18.7 16.5 1.8 13 20-3.9 20-7.2 0-10.9 5.9-8.3 12.9 2.6 6.7 71.7 2.8 86.4-4.9 49.6-25.9 48.5-100.8-1.9-124.5-10.4-4.8-13-5.1-48.1-5.7l-37-0.6zm72.9 33.5c12.4 8.2 22 37 14.1 42-1.1 0.7-2 2.7-2 4.6 0 9.8-16.6 19.3-35.6 20.4l-12.9 0.7-0.3-37.3-0.2-37.3 14.3 0.7c11.6 0.6 15.8 1.8 22.6 6.2z"/><path  d="m122.1 236.4c-9.1 5-7.2 23.6 2.6 25.7 3.5 0.7 7.2 3.7 9.7 7.7 3.6 5.9 11.2 11 16.1 11 1.2 0 0.7-1.3-1.1-3-1.7-1.8-3-5.4-3-8 0-2.7-1.3-5.4-3-6.1-4.6-1.6-3.6-4.6 1.6-4.6 2.4 0 5.6-1.1 6.9-2.4 1.9-1.9 2.9-1.9 4.7 0 1.3 1.3 4.5 2.4 7 2.4 5.1 0 6.1 3 1.5 4.6-1.6 0.7-2.9 3.7-2.9 7.1 0 3.5-1.4 6.7-3.5 7.9-2.9 1.7-3 2-0.3 2 4.6 0.1 13.7-7.4 15.7-13 1-2.6 4-5.5 6.7-6.5 7.2-2.8 9.8-8.8 7.1-16.8-2.6-8-10-10.7-16.6-6.4-6 3.9-26.8 3.1-33.4-1.3-6.3-4-8.7-4-15.8-0.3zm13.7 7.9c1.9 5-1.1 13.1-4.7 12.4-4.2-0.8-7.3-11.7-3.9-13.8 3.7-2.4 7.3-1.9 8.6 1.4zm45.8-1.3c3 1.9 1.3 10.8-2.6 14.1-2.1 1.8-3.5 0.6-6.1-5-4.3-8.9 0.7-14.2 8.7-9.1z"/><path  d="m343.1 241.6c-32 11.4-46.1 31.7-44.1 63.7 1.6 23.5 20.7 48.7 37 48.7 2.2 0 4.5 0.9 5.2 2 1.5 2.5 33.4 2.6 38 0.2 1.9-1 6.6-3 10.3-4.4 34-12.7 43.5-65.7 16.6-93.3-14.6-15-45.1-23.2-63-16.9zm27.4 25.3c15.3 5.7 25.5 25.2 21.2 40.2-8.5 30.5-45.8 35.3-59.5 7.8-13.4-26.8 11.7-58.2 38.3-48z"/><path  d="m432.5 240.6c-2.2 2.3-1.4 7.1 2.6 15.5 2.1 4.4 3.9 9.9 3.9 12.4 0.1 2.5 0.9 4.4 1.8 4.4 1.6 0 2.4 2.4 5.5 18.3 0.6 3.6 1.9 7.3 2.6 8.4 1.2 1.8 4.9 12.2 13 37.6 1.5 4.4 3.2 10.4 3.8 13.5l1.2 5.5 17-0.6 16.9-0.6 5.5-16.8c3.1-9.3 7-23 8.8-30.7 1.9-7.6 3.8-15.4 4.4-17.3 1.4-5.3 6.4-4 7.7 2 1.1 5.3 2.6 11.8 7.1 29.2 1.1 4.3 2.8 9.7 3.8 11.9 0.8 2.1 2.2 7 2.9 10.8 2.5 12.6 3 12.9 20 12.7l15.5-0.2 3.7-11.7c13.3-42.8 27.4-84.7 31-92.6 5.7-11.9 4.2-13.1-13.4-11.6l-14.4 1.2-7 21.7c-3.8 12-7.7 27.5-8.6 34.5-2 17-12 24.3-12 8.8 0-3.1-2.2-12.7-5-21.3-2.7-8.6-4.9-17.4-4.9-19.7 0-2.3-0.7-4.8-1.5-5.6-0.8-0.8-2.4-5.3-3.5-9.8l-2-8.2-15.3-0.6c-11.3-0.4-15.6 0.1-16.1 2-0.4 1.3-1.8 6.5-3.2 11.4-1.3 4.9-3.5 12-4.9 15.9-2.8 7.8-6.8 23.3-8.7 33.4-2.2 12.2-9.1 13.5-11 2.1-1.9-11.4-5.2-26.4-6.9-30.6-2-5.1-5.3-15.7-7.9-26.2l-2.3-8.4h-11.6c-6.4 0-12.8-0.5-14.3-1.1-1.6-0.5-3.4-0.4-4.2 0.4z"/><path  d="m629.8 241.5c-0.6 0.9-1.2 27-1.5 58l-0.4 56.5h15.6 15.6l-1.2-26.2c-0.7-14.4-1.5-28.9-1.8-32.1-0.8-9 5.8-8 11.1 1.7 4.8 8.6 7.9 13.1 14.9 20.8 6 6.5 20.1 24.8 24 31.1 2.9 4.7 4.7 5.1 24.9 5.6l5.1 0.1 0.3-57.9 0.3-57.8h-15.6-15.6l1.1 31.6c1 29.8 0.9 31.7-2.6 31.7-2 0-4.2-1.8-4.9-3.9-1.2-4.2-17.7-27.5-21.5-30.7-1.4-1.1-6-7-10.4-12.9-4.4-6-9.3-11.9-10.8-13.1-3.3-2.7-25.3-4.7-26.6-2.5z"/><path  d="m151.1 263.8c-1.7 4.3 0.6 9.6 3.7 8.6 1.3-0.5 2.4-2.8 2.4-5.4 0-5.4-4.4-7.7-6.1-3.2z"/><path  d="m130.5 277.4c0 0.3-2.1 6.6-4.9 14.1-7.5 20.9-4.7 37.7 8.1 46 6.3 4.2 20.1 4.8 22.4 0.9 1.1-1.8 2-2 3-0.4 2 3.2 16 2.7 18.8-0.7 3.2-3.7 0.8-7.5-3.9-6-2.5 0.8-4.6-0.7-7.6-5.6-5.1-8.2-11.7-11.3-20.9-9.8-8.4 1.2-9.3-1.7-1.6-5.3l5.4-2.6-4.4-1.9c-4.8-2.3-6.2-7.5-1.9-7.5 1.4 0 3.7 1.1 4.9 2.4 3.1 3.1 23.6 3 26.6-0.1 1.3-1.3 5.2-2.3 8.7-2.3 3.5 0 7.1-0.9 7.9-2.2 2-3.4-5.2-7.9-10-6.3-9.8 3.4-39.4-4.3-43.7-11.3-1-1.6-6.9-2.8-6.9-1.4z"/><path  d="m110.6 435c-1.9 12.4 1 89.3 3.8 96 16 40.2 84.9 43.1 106.2 4.6l5.9-10.5 0.5-45.8 0.7-45.9-16.1 0.7c-20.3 0.8-18.6-3.2-18.1 42.1 0.5 43.7-0.6 48.1-13.7 54.9-28.7 14.9-43.4-18-35.5-79.2 1.1-8.2 1.1-14.5 0.1-15.6-2-2-33.5-3.1-33.8-1.3z"/><path  d="m253.8 435.6c-1.2 2.1-1.1 122.3 0.2 123.6 1.1 1.1 31.2 0.7 32.4-0.4 0.8-0.8-3.2-51.4-4.8-60.9-2.5-14.5 6.7-10.3 19 8.9 5.9 9 11.7 17.2 13 18.3 1.3 1.1 7.1 8.2 12.8 15.8 15.2 19.9 14.3 19.3 29.9 19.6 13.8 0.3 20.1-3 16.5-8.7-1.7-2.7-1.7-98.5 0-107.1 1.8-9.2 0-10.2-18.1-10.7-17.4-0.5-16.3-3.2-14.5 35.7 0.8 17.4 1 32.4 0.6 33.2-2.4 4.3-8.5 0.7-12.3-7.1-2.3-4.7-5.7-10.3-7.6-12.3-2-2.2-11-13.3-20.1-24.7-9.1-11.4-17.2-21.4-18-22.3-1.8-2-27.8-2.9-29-0.9zm26.5 40.5c-3.2 3.2-3.4 3-3.4-3.4 0-6.4 0.2-6.6 3.4-3.4 3.2 3.2 3.2 3.6 0 6.8z"/><path  d="m399.5 491.2c0 31.7-0.5 59.4-1.1 61.6-1.8 7.5 0.8 7.9 38.7 6.6 42-1.4 49.9-2.8 60.4-10.8 41.7-31.5 35-92.2-12.1-108.5-9.3-3.3-16.2-3.9-64.6-5.8l-21.3-0.8zm72.9-25.7c1.5 1.2 4.5 3.1 6.8 4.2 7.8 3.9 13.8 18.2 12.9 30.8-1.6 21.9-15.5 31.9-44.6 32.4l-15.4 0.2-0.5-33.6c-0.3-18.5-0.1-34.7 0.3-36 1.2-2.9 36.4-1.2 40.5 2z"/><path  d="m545.5 495.4c-0.4 33.8-0.4 62.2-0.1 63.3 0.4 1.3 18.9 1.9 51.4 1.7l50.9-0.3 0.6-12.3c0.6-12.6-1.9-18.8-6.8-17-1.5 0.6-16.4 1.7-33.3 2.4l-30.7 1.4v-13.4-13.3l16.3 1.2c9 0.6 22.6 1.4 30.2 1.7l13.8 0.5v-13.9-13.8l-29.3 0.7c-33 0.8-32.3 1.1-31.3-13.2l0.7-10 33.5 1.2 33.6 1.1-0.6-14.4-0.6-14.5-48.9-0.2-48.9-0.2z"/><path  d="m669.8 434.8c-2.9 5.5 0.4 125.9 3.3 125.7 1.8-0.1 9.1-0.3 16.4-0.5l12.9-0.3-1.4-17.8-1.4-17.8h11.8c13.2 0 15 1.7 27.4 24.9l5.3 10.1 19.9 1.3c10.9 0.8 20.3 0.9 20.9 0.2 1.4-1.3 0.9-2-15-22.5-14-18-14.7-20.5-6.9-23.7 11.2-4.6 19.4-27.1 16.1-44.3-4.3-23-18.6-32.9-49.1-34.2-10.5-0.4-28.1-1.1-39.3-1.6-11.1-0.4-20.5-0.2-20.9 0.5zm73.7 33.1c14.5 14 1.8 29.8-24.6 30.8l-17.8 0.7-0.6-19.3-0.5-19.4 19.3 1.3c16.7 1.1 20.1 1.9 24.2 5.9z"/></svg>